<svg width="267" height="93" viewBox="0 0 267 93" fill="none" xmlns="http://www.w3.org/2000/svg">
<path d="M42.344 0.735992L73.576 81.248C74.856 84.4907 76.3067 86.6667 77.928 87.776C79.5493 88.8 81.0427 89.3547 82.408 89.44V92C80.7013 91.8293 78.6107 91.744 76.136 91.744C73.6613 91.6587 71.1867 91.616 68.712 91.616C65.384 91.616 62.2693 91.6587 59.368 91.744C56.4667 91.744 54.12 91.8293 52.328 92V89.44C56.68 89.2693 59.4533 88.544 60.648 87.264C61.8427 85.8987 61.5867 83.04 59.88 78.688L36.072 15.072L38.12 13.408L15.848 71.264C14.4827 74.6773 13.672 77.5787 13.416 79.968C13.16 82.272 13.3733 84.1067 14.056 85.472C14.824 86.8373 16.0613 87.8187 17.768 88.416C19.56 89.0133 21.7787 89.3547 24.424 89.44V92C22.0347 91.8293 19.5173 91.744 16.872 91.744C14.312 91.6587 11.9227 91.616 9.704 91.616C7.57067 91.616 5.736 91.6587 4.2 91.744C2.74933 91.744 1.384 91.8293 0.104 92V89.44C1.81067 89.0133 3.56 88.032 5.352 86.496C7.144 84.8747 8.76533 82.144 10.216 78.304L40.296 0.735992C40.6373 0.735992 40.9787 0.735992 41.32 0.735992C41.6613 0.735992 42.0027 0.735992 42.344 0.735992ZM57.96 55.136V57.696H19.816L21.096 55.136H57.96ZM150.514 1.376V3.936C148.893 4.27733 147.271 5.344 145.65 7.13599C144.029 8.84266 142.237 11.5733 140.274 15.328L114.418 66.528H112.242L82.29 11.232C80.5833 8.07466 79.1327 6.11199 77.938 5.34399C76.8287 4.49066 75.8047 4.064 74.866 4.064V1.376C76.5727 1.46133 78.322 1.54666 80.114 1.632C81.9913 1.71733 83.9967 1.75999 86.13 1.75999C88.946 1.75999 91.9327 1.75999 95.09 1.75999C98.3327 1.67466 101.319 1.54666 104.05 1.376V4.064C101.917 4.064 100.039 4.31999 98.418 4.83199C96.7967 5.344 95.73 6.28266 95.218 7.64799C94.706 9.01333 95.09 10.9333 96.37 13.408L118.002 54.88L116.978 55.648L134.002 21.728C136.391 17.0347 137.543 13.408 137.458 10.848C137.458 8.288 136.477 6.53866 134.514 5.6C132.551 4.576 129.778 4.02133 126.194 3.936V1.376C128.669 1.46133 131.186 1.54666 133.746 1.632C136.306 1.71733 138.695 1.75999 140.914 1.75999C143.133 1.75999 144.967 1.71733 146.418 1.632C147.869 1.54666 149.234 1.46133 150.514 1.376ZM120.178 53.088V78.432C120.178 81.504 120.434 83.808 120.946 85.344C121.458 86.88 122.439 87.904 123.89 88.416C125.426 88.928 127.645 89.2693 130.546 89.44V92C128.583 91.8293 126.109 91.744 123.122 91.744C120.221 91.6587 117.277 91.616 114.29 91.616C110.962 91.616 107.847 91.6587 104.946 91.744C102.045 91.744 99.698 91.8293 97.906 92V89.44C100.807 89.2693 102.983 88.928 104.434 88.416C105.97 87.904 106.994 86.88 107.506 85.344C108.018 83.808 108.274 81.504 108.274 78.432V52.192L115.186 60.128L120.178 53.088ZM266.971 1.376V3.936C265.35 4.27733 263.558 5.25866 261.595 6.88C259.632 8.416 258.054 11.1467 256.859 15.072L232.667 92.64C232.496 92.64 232.326 92.64 232.155 92.64C231.984 92.64 231.814 92.64 231.643 92.64C231.472 92.64 231.302 92.64 231.131 92.64C230.96 92.64 230.79 92.64 230.619 92.64L203.483 12.128C202.374 8.8 201.136 6.624 199.771 5.6C198.406 4.576 197.126 4.02133 195.931 3.936V1.376C197.467 1.46133 199.387 1.54666 201.691 1.632C203.995 1.71733 206.214 1.75999 208.347 1.75999C211.675 1.75999 214.79 1.71733 217.691 1.632C220.592 1.54666 222.939 1.46133 224.731 1.376V3.936C222.171 4.02133 220.123 4.27733 218.587 4.70399C217.136 5.13066 216.283 6.06933 216.027 7.52C215.856 8.97066 216.283 11.36 217.307 14.688L236.379 73.696L234.587 75.232L251.483 22.112C253.019 17.4187 253.702 13.792 253.531 11.232C253.446 8.58666 252.507 6.75199 250.715 5.728C248.923 4.61866 246.235 4.02133 242.651 3.936V1.376C245.126 1.46133 247.643 1.54666 250.203 1.632C252.763 1.71733 255.152 1.75999 257.371 1.75999C259.59 1.75999 261.424 1.71733 262.875 1.632C264.326 1.54666 265.691 1.46133 266.971 1.376ZM177.499 1.376V3.936C175.28 4.10666 173.659 4.53333 172.635 5.216C171.696 5.89866 171.227 7.008 171.227 8.544C171.312 9.99466 171.782 12.0427 172.635 14.688L192.475 75.232L189.275 78.432L207.195 21.216L209.115 24.288L187.995 92.64C187.824 92.64 187.654 92.64 187.483 92.64C187.312 92.64 187.142 92.64 186.971 92.64C186.8 92.64 186.63 92.64 186.459 92.64C186.288 92.64 186.118 92.64 185.947 92.64L158.811 12.128C157.702 8.8 156.294 6.624 154.587 5.6C152.88 4.576 151.344 4.02133 149.979 3.936V1.376C151.686 1.46133 153.776 1.54666 156.251 1.632C158.811 1.71733 161.286 1.75999 163.675 1.75999C166.491 1.75999 169.094 1.71733 171.483 1.632C173.958 1.54666 175.963 1.46133 177.499 1.376Z" fill="#FF8E8E"/>
</svg>
